<?xml version="1.0" standalone="no"?>
<!DOCTYPE svg PUBLIC "-//W3C//DTD SVG 20010904//EN"
 "http://www.w3.org/TR/2001/REC-SVG-20010904/DTD/svg10.dtd">
<svg version="1.0" xmlns="http://www.w3.org/2000/svg"
 width="3000.000000pt" height="2150.000000pt" viewBox="0 0 3000.000000 2150.000000"
 preserveAspectRatio="xMidYMid meet">

<g transform="translate(0.000000,2150.000000) scale(0.100000,-0.100000)"
fill="#000000" stroke="none">
<path d="M14680 20681 l0 -109 -71 -4 -71 -3 -115 109 c-111 103 -118 108
-152 103 -20 -3 -168 -16 -328 -28 l-293 -23 0 -103 c0 -57 -4 -103 -8 -103
-5 0 -89 36 -188 81 l-179 80 -100 -16 c-119 -20 -512 -93 -537 -101 -16 -5
-18 -20 -18 -140 l0 -136 58 -130 c31 -72 69 -144 85 -159 15 -15 62 -53 105
-83 l77 -54 53 10 c30 5 57 8 61 6 10 -3 -424 -1027 -442 -1044 -7 -6 -136
-30 -287 -53 -210 -31 -278 -45 -291 -58 -27 -27 -1199 -1517 -1199 -1524 0
-3 44 -35 98 -72 331 -220 536 -451 632 -714 120 -331 67 -713 -185 -1318
-324 -779 -432 -1095 -494 -1441 -48 -267 -53 -576 -12 -739 145 -585 630
-1058 1679 -1639 181 -99 430 -231 807 -426 717 -371 1106 -616 1349 -850 115
-111 171 -182 241 -308 l58 -103 47 89 c64 121 117 191 229 302 257 256 594
466 1486 930 490 255 782 413 1005 548 824 494 1246 945 1365 1458 54 233 29
607 -65 978 -68 268 -171 551 -380 1051 -50 121 -109 265 -130 320 -218 575
-235 938 -59 1277 110 209 284 388 562 576 l116 79 -606 769 c-449 571 -612
771 -632 776 -24 7 -477 84 -530 90 -21 3 -48 59 -252 523 -125 285 -227 521
-224 523 2 2 38 -2 80 -8 l76 -12 86 74 c84 72 86 75 149 208 l63 135 1 142
c0 126 -2 142 -17 147 -31 9 -475 94 -558 106 l-80 12 -181 -81 c-100 -44
-184 -81 -188 -81 -3 0 -6 47 -6 105 0 78 -3 105 -13 105 -7 0 -150 11 -317
25 -168 14 -310 25 -316 25 -6 0 -61 -47 -123 -105 l-112 -105 -75 0 -74 0 0
110 0 110 -330 0 -330 0 0 -109z m590 -69 l0 -109 188 -6 c103 -4 217 -7 255
-7 l67 0 0 106 0 107 133 -7 c72 -5 188 -13 257 -19 l125 -12 5 -110 5 -110
30 -3 c81 -8 442 -54 458 -58 15 -5 17 4 17 100 l0 106 33 -1 c17 0 133 -19
257 -42 l225 -42 3 -100 c3 -96 2 -102 -32 -170 -59 -119 -25 -111 -306 -71
-406 58 -793 98 -1215 127 -252 17 -1086 23 -1360 10 -511 -24 -1058 -78
-1518 -150 l-118 -18 -33 61 c-47 85 -58 128 -54 226 l3 84 205 38 c113 20
229 40 258 44 l52 6 0 -107 0 -107 28 5 c15 3 130 18 255 33 l227 28 0 107 0
108 43 6 c59 8 401 35 443 35 l34 0 0 -111 0 -111 58 6 c31 3 146 8 255 12
l197 6 0 109 0 109 260 0 260 0 0 -108z m-865 -11 l39 -41 -67 0 -67 0 0 61 0
60 28 -19 c15 -11 45 -39 67 -61z m1305 19 l0 -60 -60 0 c-33 0 -60 4 -60 9 0
8 109 110 118 111 1 0 2 -27 2 -60z m-2303 -72 c67 -29 120 -54 117 -57 -5 -5
-187 -30 -226 -31 -28 0 -28 0 -28 70 0 39 3 70 8 70 4 0 62 -23 129 -52z
m3329 -75 c-6 -6 -196 16 -210 24 -5 3 40 27 100 53 l109 48 3 -60 c2 -33 1
-63 -2 -65z m-1236 -243 c528 -24 1173 -87 1612 -158 l107 -17 -67 -57 c-37
-32 -76 -58 -87 -58 -10 0 -190 22 -400 50 -376 49 -550 67 -900 92 -243 18
-1266 18 -1510 0 -420 -30 -847 -75 -1160 -123 l-129 -19 -51 35 c-89 62 -112
83 -95 89 25 8 443 65 675 91 349 39 650 62 1045 78 175 8 760 6 960 -3z
m-510 -299 l0 -98 -92 -7 c-50 -3 -149 -6 -220 -6 -71 0 -227 -5 -346 -11
l-217 -10 -59 38 -58 38 7 50 c3 28 10 54 14 58 15 15 478 41 804 45 l167 2 0
-99z m525 89 c211 -9 486 -28 492 -33 1 -2 3 -26 5 -56 l3 -52 -39 -14 c-21
-7 -50 -25 -65 -39 l-26 -25 -175 9 c-96 5 -233 10 -305 10 -71 0 -181 3 -242
7 l-113 6 0 99 0 98 123 0 c67 0 221 -5 342 -10z m-1570 -82 c-10 -56 -11 -58
-48 -58 -43 0 -126 -40 -174 -84 l-40 -35 -301 -32 c-166 -18 -305 -30 -308
-27 -3 3 12 47 33 96 27 64 44 92 58 96 57 14 658 83 738 85 l49 1 -7 -42z
m2380 22 c329 -36 520 -62 532 -74 14 -13 85 -177 79 -183 -2 -3 -148 11 -324
30 l-321 34 -47 42 c-31 27 -68 48 -106 59 -40 12 -58 22 -58 33 0 9 -3 31 -6
48 -6 30 -6 31 32 31 22 0 120 -9 219 -20z m-2323 -176 c16 -8 40 -33 55 -55
l27 -41 -33 -251 c-17 -138 -33 -253 -35 -254 -3 -3 -274 -23 -319 -23 -29 0
-29 1 -23 48 3 26 17 143 31 261 28 231 34 247 97 292 68 49 135 57 200 23z
m2145 -1 c52 -24 113 -97 113 -135 0 -18 11 -123 25 -232 14 -110 25 -212 25
-228 l0 -30 -127 8 c-71 3 -148 10 -173 13 l-45 6 -32 245 c-36 270 -35 274
21 329 54 52 117 60 193 24z m-795 -20 l157 -6 5 -54 c4 -29 9 -78 12 -108 l5
-55 -108 0 -108 0 -47 49 c-56 58 -114 88 -193 101 -124 20 -253 -23 -324
-107 l-35 -43 -114 0 -114 0 7 68 c3 37 8 86 11 109 l5 42 137 4 c300 6 555 7
704 0z m-914 -118 c-5 -55 -12 -103 -16 -106 -4 -4 -69 -9 -146 -13 l-138 -6
5 33 c16 90 18 146 8 166 -11 19 -9 21 16 22 15 1 82 4 148 8 66 3 123 4 126
1 3 -3 2 -50 -3 -105z m1311 105 c92 0 93 0 86 -22 -10 -31 -10 -52 -1 -132
l8 -69 -122 6 c-67 3 -123 7 -125 9 -7 7 -23 203 -18 212 3 4 22 6 42 2 20 -3
78 -6 130 -6z m760 -60 c46 -5 85 -11 86 -12 1 -2 13 -49 27 -105 l26 -103
-32 1 c-17 0 -83 6 -146 12 l-115 12 -12 80 c-6 44 -12 93 -12 108 -1 31 -24
30 178 7z m-2863 -67 c-4 -43 -9 -92 -12 -109 l-6 -30 -126 -12 c-69 -6 -128
-10 -129 -8 -2 1 9 50 24 109 l28 106 65 6 c36 4 70 8 75 10 6 2 27 4 49 4
l39 1 -7 -77z m-314 -55 c-13 -57 -28 -106 -31 -110 -6 -6 -352 -51 -356 -46
-1 2 17 48 41 103 24 55 45 103 46 108 3 6 238 43 299 46 l27 1 -26 -102z
m3501 83 c76 -10 140 -20 142 -22 1 -2 23 -50 48 -106 43 -98 44 -103 24 -103
-27 0 -329 39 -332 42 -1 2 -12 44 -25 93 -12 50 -25 96 -28 103 -5 16 5 15
171 -7z m-1697 -41 c121 -53 187 -193 219 -465 8 -71 15 -134 15 -138 0 -5
-17 -7 -37 -5 l-38 3 -11 117 c-14 137 -25 194 -55 273 -53 141 -191 202 -316
140 -98 -49 -150 -170 -168 -390 -11 -147 -10 -145 -56 -145 l-39 0 5 38 c2
20 9 78 15 127 34 285 118 425 277 465 50 12 138 3 189 -20z m-461 -152 c-4
-13 -17 -60 -29 -105 l-21 -81 -70 -6 c-38 -3 -155 -9 -259 -12 l-189 -7 7 69
c4 38 9 86 13 107 l6 37 66 1 c36 1 127 5 201 8 74 4 168 8 209 9 72 2 73 2
66 -20z m1007 13 c87 -4 161 -10 165 -14 10 -10 32 -190 24 -199 -3 -3 -94 -2
-201 3 -107 4 -211 8 -231 9 l-37 0 -18 73 c-9 39 -23 87 -31 105 l-13 32 92
-1 c51 0 164 -4 250 -8z m886 -56 c236 -25 485 -55 510 -63 17 -5 33 -31 62
-97 38 -85 49 -121 33 -112 -11 7 -455 55 -638 70 l-150 12 -7 60 c-4 33 -9
79 -12 103 -6 41 -5 42 24 42 17 0 97 -7 178 -15z m-2951 -37 c-4 -24 -9 -69
-13 -100 -7 -66 0 -62 -149 -73 -44 -3 -201 -19 -349 -36 -148 -16 -270 -28
-272 -26 -5 5 71 186 82 197 11 10 557 75 663 79 l43 1 -5 -42z m989 -240
c-14 -150 -12 -148 -114 -148 l-53 0 5 43 c3 23 8 69 12 102 3 33 11 63 18 67
6 4 40 8 75 8 l64 0 -7 -72z m959 -15 c4 -49 9 -96 11 -105 5 -16 -3 -18 -69
-18 l-74 0 -7 63 c-4 34 -9 81 -12 105 l-6 42 75 0 75 0 7 -87z m313 72 c6 -3
12 -17 12 -32 0 -15 4 -33 8 -40 5 -8 80 -17 222 -27 118 -9 229 -18 247 -20
l32 -5 -6 48 -5 47 153 -13 c85 -7 163 -14 173 -15 16 -3 25 -23 47 -113 15
-60 27 -110 26 -111 -1 0 -75 7 -164 17 -199 22 -527 46 -728 54 -82 3 -173 8
-202 11 -59 6 -57 2 -68 135 l-6 75 123 -4 c68 -2 129 -5 136 -7z m-1482 -42
c-3 -27 -8 -74 -12 -105 l-6 -56 -82 -6 c-44 -3 -160 -10 -256 -16 -96 -6
-316 -24 -489 -41 -172 -16 -316 -28 -319 -25 -2 3 8 55 23 115 l28 109 46 5
c25 4 84 9 131 12 47 3 95 8 108 11 20 4 22 1 22 -39 0 -42 1 -43 28 -40 30 3
438 33 458 33 8 0 14 15 16 38 l3 37 55 6 c30 3 99 6 153 7 l99 2 -6 -47z
m2644 -53 c96 -12 175 -22 177 -23 1 -2 25 -53 52 -115 48 -107 49 -112 28
-112 -12 1 -116 13 -231 28 l-210 28 -22 89 c-13 50 -26 100 -29 113 -5 21 -3
23 27 17 18 -3 112 -14 208 -25z m-3850 -91 c-16 -61 -30 -112 -32 -114 -2 -2
-71 -11 -153 -20 -83 -8 -183 -20 -223 -26 -41 -6 -76 -9 -78 -6 -4 3 81 210
93 226 3 4 350 48 394 50 l27 1 -28 -111z m2666 -89 c635 -32 1324 -108 1899
-211 l180 -32 570 -724 c314 -399 571 -730 573 -736 1 -7 -19 -25 -45 -42
-179 -112 -401 -314 -505 -460 -149 -210 -210 -403 -211 -660 -1 -285 65 -535
279 -1051 215 -518 259 -630 319 -806 112 -327 167 -587 184 -864 18 -279 -15
-460 -123 -679 -137 -278 -355 -522 -698 -781 -347 -261 -660 -446 -1508 -889
-715 -374 -988 -531 -1237 -712 -235 -171 -409 -342 -492 -485 l-28 -48 -50
78 c-108 164 -302 342 -583 531 -247 167 -497 308 -1145 646 -676 352 -938
501 -1235 699 -603 401 -937 786 -1047 1206 -46 175 -43 468 8 750 58 321 145
582 407 1210 172 413 233 582 282 775 94 368 77 643 -55 910 -30 61 -78 142
-107 180 -112 149 -287 309 -473 435 -49 33 -73 55 -68 63 4 7 262 337 575
733 l567 721 168 27 c787 124 1560 199 2323 226 296 10 974 5 1276 -10z"/>
<path d="M13848 19705 c-20 -14 -39 -33 -42 -42 -2 -10 -14 -97 -26 -193 -11
-96 -23 -188 -25 -204 l-5 -29 96 6 c54 4 99 9 102 12 3 3 16 85 28 182 13 98
25 192 28 210 3 25 -1 37 -21 57 -34 34 -86 35 -135 1z"/>
<path d="M16004 19706 l-28 -23 27 -214 c16 -117 29 -215 31 -216 2 -2 46 -6
100 -10 76 -5 96 -3 96 7 0 7 -11 104 -25 214 -27 212 -31 223 -87 252 -40 21
-83 17 -114 -10z"/>
<path d="M14535 18653 c-502 -16 -1178 -74 -1740 -149 -262 -35 -555 -80 -559
-86 -2 -2 -209 -261 -461 -576 l-457 -572 28 -23 c79 -61 196 -174 259 -247
422 -493 479 -1018 195 -1796 -27 -72 -110 -281 -186 -465 -162 -394 -228
-570 -290 -774 -123 -406 -157 -803 -90 -1030 117 -389 511 -779 1206 -1192
250 -148 388 -223 965 -523 878 -457 1232 -675 1514 -934 46 -42 87 -76 92
-76 5 0 48 37 97 81 267 249 641 479 1517 934 560 291 747 393 975 528 347
206 600 396 800 596 236 238 362 449 407 686 20 106 13 364 -16 530 -61 349
-123 531 -479 1405 -194 475 -265 762 -265 1075 0 242 37 409 137 610 107 217
284 431 490 592 l28 22 -463 580 -462 579 -251 41 c-597 96 -1169 154 -1801
181 -213 9 -947 11 -1190 3z m795 -949 c589 -88 1070 -404 1422 -934 78 -117
235 -413 253 -476 5 -20 1 -22 -72 -26 -140 -9 -273 -80 -362 -191 -27 -35
-85 -123 -129 -197 -83 -139 -119 -192 -108 -157 3 10 11 58 17 108 13 110 -1
194 -61 353 -22 58 -40 110 -40 115 0 5 17 12 37 16 77 14 193 56 221 80 71
60 36 182 -87 302 -38 36 -99 32 -198 -16 -44 -21 -107 -49 -140 -61 l-60 -22
-54 35 c-218 139 -418 194 -741 204 -173 5 -200 4 -223 -11 -31 -20 -34 -65
-6 -90 11 -10 108 -42 216 -72 173 -48 311 -95 354 -123 11 -7 5 -14 -26 -29
-66 -34 -112 -117 -137 -250 -14 -74 -14 -74 7 -68 12 4 62 16 111 27 108 24
158 17 282 -40 76 -36 81 -41 102 -90 13 -28 31 -86 42 -128 21 -83 56 -330
48 -338 -2 -3 -36 4 -74 15 -38 11 -112 29 -165 40 -89 18 -100 19 -154 5 -32
-9 -84 -31 -114 -50 -67 -41 -181 -140 -245 -212 -91 -102 -216 -278 -258
-364 l-43 -88 -277 0 -278 -1 0 510 0 510 -104 0 c-116 0 -116 0 -116 83 0 35
2 37 30 37 l30 0 0 110 0 110 -25 0 c-22 0 -25 4 -25 40 0 33 3 40 20 40 18 0
20 7 20 58 0 68 -24 113 -75 143 -27 16 -35 27 -35 50 0 39 -45 86 -90 94 -50
9 -102 -27 -115 -81 -7 -27 -24 -52 -52 -78 -45 -40 -63 -83 -63 -148 0 -34 3
-38 25 -38 23 0 25 -4 25 -40 0 -38 -2 -40 -30 -40 l-30 0 0 -110 0 -110 35 0
c35 0 35 0 35 -44 0 -76 1 -76 -116 -76 l-104 0 0 -510 0 -510 -440 0 -440 0
0 69 c0 199 44 522 105 771 175 710 541 1274 1040 1600 111 72 319 172 447
214 126 42 313 81 448 95 125 13 408 5 540 -15z m-2875 -899 l36 -114 117 -3
117 -3 -85 -64 c-47 -35 -89 -67 -93 -71 -5 -5 7 -59 27 -121 19 -62 33 -115
31 -117 -2 -3 -41 25 -87 60 -46 35 -88 67 -95 71 -6 4 -52 -24 -103 -64 -50
-39 -93 -69 -95 -67 -3 2 11 53 30 114 19 60 35 112 35 115 0 3 -41 36 -92 75
l-91 69 116 3 116 3 36 114 c20 63 38 115 40 115 2 0 20 -52 40 -115z m3070
-54 c50 -11 124 -32 165 -46 83 -30 233 -105 226 -113 -3 -2 -56 -15 -117 -27
l-112 -23 -46 28 c-72 44 -186 87 -394 146 -106 30 -196 56 -202 59 -5 3 80 3
190 1 150 -4 222 -10 290 -25z m-1487 -63 c25 -25 13 -38 -33 -38 -48 0 -55 9
-29 34 18 19 45 21 62 4z m2342 -36 c22 -18 22 -18 -59 -56 -45 -21 -81 -41
-81 -44 0 -4 4 -13 9 -21 8 -12 25 -7 98 26 79 37 89 40 101 25 27 -35 15 -49
-60 -67 -109 -25 -108 -25 -108 -46 0 -24 23 -24 120 1 75 19 96 16 85 -11
-10 -26 -58 -47 -176 -79 -63 -17 -118 -35 -123 -41 -6 -5 -4 -27 6 -56 9 -27
35 -100 56 -163 36 -103 65 -260 48 -260 -3 0 -28 45 -56 100 -28 55 -54 100
-58 100 -35 -1 -31 -21 33 -156 l66 -139 -17 -68 c-9 -38 -20 -65 -24 -60 -4
4 -29 81 -55 171 -26 89 -53 162 -59 162 -33 -1 -31 -20 26 -210 31 -107 58
-204 58 -216 0 -11 -13 -58 -29 -105 -15 -47 -37 -120 -47 -164 l-19 -79 -7
44 c-5 25 -22 165 -38 312 -17 148 -39 313 -51 368 -20 101 -60 222 -82 250
-30 38 -154 94 -256 116 -59 12 -74 12 -138 -3 -40 -9 -75 -14 -78 -11 -3 3 4
32 16 64 26 70 85 134 122 134 15 0 91 14 170 30 80 17 159 30 177 30 55 0
146 28 273 85 67 30 125 55 128 55 4 0 17 -8 29 -18z m-2297 -73 c43 -22 77
-62 77 -91 l0 -28 -150 0 c-124 0 -152 3 -156 15 -9 23 27 76 66 96 39 21 129
25 163 8z m-108 -209 c0 -33 -2 -35 -37 -38 l-38 -3 0 41 0 41 38 -3 c35 -3
37 -5 37 -38z m140 0 c0 -33 -2 -35 -37 -38 l-38 -3 0 41 0 41 38 -3 c35 -3
37 -5 37 -38z m55 -145 l0 -55 -165 0 -165 0 0 55 0 55 165 0 165 0 0 -55z
m2894 -87 c27 -77 76 -236 76 -250 0 -4 -140 -8 -310 -8 l-310 0 37 61 c108
175 249 267 414 268 l66 1 27 -72z m-2954 -50 c0 -13 3 -40 6 -60 l7 -38 -113
0 c-112 0 -112 0 -106 23 3 12 6 39 6 60 l0 37 100 0 c97 0 100 -1 100 -22z
m-330 -203 l0 -45 45 0 45 0 0 45 0 45 45 0 45 0 0 -45 0 -45 50 0 50 0 0 45
0 45 45 0 45 0 0 -45 0 -45 45 0 45 0 0 45 0 45 45 0 45 0 0 -100 0 -100 -320
0 -320 0 0 100 0 100 45 0 45 0 0 -45z m550 -355 l0 -140 -320 0 -320 0 0 140
0 140 320 0 320 0 0 -140z m2709 -46 c102 -19 186 -36 187 -37 2 -2 6 -29 10
-60 l7 -57 -367 0 c-414 0 -393 -5 -304 76 75 69 118 97 166 110 55 14 59 13
301 -32z m-4780 -229 l34 -114 121 -3 121 -3 -96 -73 -96 -73 34 -110 c19 -61
32 -113 29 -116 -2 -3 -43 25 -89 61 -47 36 -90 66 -97 66 -6 0 -50 -30 -97
-66 -47 -36 -87 -63 -90 -60 -3 3 10 55 30 115 l34 111 -96 72 -96 73 120 3
121 3 34 114 c19 63 37 115 40 115 3 0 20 -52 39 -115z m2071 -105 l0 -181
-117 3 -118 3 -2 105 c-3 126 -7 144 -35 170 -29 27 -71 25 -105 -4 -28 -24
-28 -26 -31 -150 l-4 -126 -114 0 -114 0 0 180 0 180 320 0 320 0 0 -180z
m550 -244 c0 -2 -28 -14 -62 -26 -160 -58 -310 -154 -371 -238 -92 -126 -115
-238 -83 -405 31 -161 99 -317 318 -727 202 -379 284 -577 330 -794 41 -196
24 -412 -46 -570 l-26 -58 -77 7 c-539 46 -954 235 -1318 600 -364 363 -620
871 -734 1455 -38 189 -52 322 -58 543 l-6 217 1067 0 c586 0 1066 -2 1066 -4z
m1298 -10 c596 -8 1086 -17 1089 -20 10 -10 -15 -368 -36 -516 -37 -256 -93
-485 -176 -715 -96 -268 -330 -694 -373 -681 -9 3 -61 26 -114 50 -54 24 -169
67 -257 97 l-159 53 -6 41 c-3 22 -6 108 -7 190 -1 123 1 157 15 183 9 18 19
32 22 32 3 0 4 -26 2 -57 -3 -53 -1 -58 19 -61 20 -3 22 1 25 60 l3 63 22 -55
c16 -42 25 -54 40 -52 27 6 28 9 14 50 -8 20 -16 44 -19 52 -3 8 13 -2 34 -22
51 -48 74 -39 67 24 -3 24 -1 58 4 77 l9 35 14 -57 c11 -49 16 -57 37 -57 27
0 28 10 8 76 -15 54 -13 53 40 -21 18 -25 23 -27 43 -16 l22 11 -36 51 c-20
27 -35 52 -32 54 2 2 24 -9 48 -25 33 -22 47 -26 57 -18 20 16 16 33 -12 48
-36 19 -31 30 15 30 38 0 40 2 40 29 0 17 5 33 11 37 7 4 -8 26 -38 57 l-48
50 58 -33 c32 -18 59 -31 60 -29 2 2 8 12 16 21 11 15 5 21 -53 54 -36 21 -64
39 -62 41 2 2 32 -3 67 -12 81 -19 77 -19 81 8 3 19 -4 24 -57 39 l-60 16 63
1 c59 1 62 2 62 26 0 24 -2 25 -67 26 l-68 1 63 21 c62 21 70 29 53 56 -7 11
-19 10 -70 -7 -34 -11 -61 -19 -61 -18 0 2 25 20 56 40 49 33 54 39 43 54 -8
9 -14 19 -16 21 -1 2 -13 -3 -25 -10 -15 -10 -37 -12 -63 -9 -46 7 -31 18 30
22 34 3 41 7 43 27 l4 24 -79 -7 -78 -6 64 28 c68 30 76 38 62 61 -9 15 -19
12 -106 -24 l-40 -16 55 50 c52 47 54 50 38 67 -16 16 -20 15 -75 -32 l-57
-49 24 40 c13 22 32 52 41 66 18 26 18 26 -10 47 -18 13 -33 17 -42 12 -17
-11 -32 10 -18 27 7 8 7 18 -1 33 -11 20 -13 19 -77 -27 -70 -50 -72 -46 -15
26 27 33 33 47 25 59 -17 28 -27 22 -77 -44 -27 -35 -50 -63 -52 -62 -1 2 9
36 23 77 22 61 24 74 12 82 -23 14 -31 6 -56 -57 l-24 -59 5 68 c5 65 5 67
-19 67 -22 0 -24 -5 -30 -67 -9 -94 -11 -96 -24 -28 -18 89 -21 95 -40 95 -28
0 -29 -7 -15 -73 19 -88 16 -98 -10 -47 -19 35 -22 49 -14 64 8 15 7 22 -7 32
-15 11 -23 11 -46 -2 -24 -12 -27 -18 -20 -33 7 -13 4 -28 -15 -57 -26 -42
-26 -44 -4 60 9 39 8 51 -2 58 -28 17 -37 6 -49 -62 -14 -81 -29 -92 -29 -22
0 67 -9 92 -32 92 -19 0 -20 -5 -16 -70 3 -58 2 -66 -8 -48 -7 13 -18 42 -25
66 -10 36 -15 41 -33 36 -12 -4 -23 -8 -25 -10 -2 -2 8 -36 23 -75 15 -39 25
-73 23 -75 -2 -3 -25 23 -51 56 -26 33 -51 60 -55 60 -5 0 -14 -7 -21 -15 -10
-12 -6 -23 26 -62 20 -27 42 -55 48 -63 6 -7 -20 8 -57 34 -64 46 -69 48 -85
32 -16 -16 -16 -18 2 -31 22 -16 12 -38 -14 -30 -11 4 -28 -3 -43 -18 l-25
-23 40 -64 41 -64 -40 32 c-22 17 -46 38 -53 47 -16 20 -30 19 -45 -2 -11 -15
-5 -23 41 -62 29 -25 52 -46 50 -48 -1 -2 -31 9 -65 24 -53 23 -64 25 -72 12
-14 -23 -6 -31 62 -61 l64 -28 -77 6 c-81 7 -87 4 -79 -40 1 -5 -5 -16 -14
-26 -15 -17 -12 -21 47 -60 35 -23 56 -40 48 -38 -8 3 -39 13 -68 23 -58 19
-57 19 -66 -11 -5 -18 2 -23 56 -41 l63 -21 -68 -1 c-65 -1 -68 -2 -65 -23 3
-20 10 -24 63 -28 l60 -5 -57 -13 c-45 -11 -58 -18 -58 -32 0 -28 11 -30 80
-14 35 8 67 13 72 12 4 -2 -21 -19 -57 -38 -65 -35 -72 -43 -56 -69 7 -11 20
-7 67 20 62 35 62 29 1 -38 -19 -21 -26 -36 -21 -45 5 -7 9 -17 10 -23 0 -5 2
-16 2 -22 1 -8 16 -13 37 -13 41 0 46 -16 10 -32 -28 -13 -30 -18 -12 -41 11
-16 16 -15 57 13 25 16 49 30 53 30 5 0 -8 -23 -28 -51 -34 -48 -36 -53 -20
-68 18 -17 21 -15 74 57 l20 27 -14 -55 c-19 -71 -19 -70 9 -70 21 0 26 7 37
50 16 64 31 54 28 -20 -2 -38 2 -65 11 -75 12 -14 18 -11 57 27 l44 43 -22
-58 c-24 -62 -24 -63 6 -69 15 -2 23 8 40 52 l20 55 3 -62 c3 -59 4 -63 27
-63 24 0 25 3 25 63 l1 62 15 -35 c12 -27 15 -66 12 -177 -2 -78 -6 -145 -10
-149 -9 -9 -155 42 -303 106 -197 84 -322 165 -442 286 -217 219 -333 466
-333 711 0 162 31 278 120 452 l52 101 51 0 c29 -1 539 -7 1135 -14z m-1328
-129 c-100 -220 -118 -465 -49 -678 55 -172 173 -352 327 -501 170 -164 365
-267 760 -403 10 -4 11 -53 6 -245 l-7 -240 137 0 137 0 -7 200 c-4 110 -5
200 -2 200 19 0 312 -107 401 -145 l107 -47 -20 -28 c-48 -67 -196 -224 -275
-291 -366 -312 -760 -470 -1232 -495 -122 -7 -126 -7 -118 12 102 232 110 482
23 768 -53 175 -134 350 -348 751 -178 332 -245 491 -271 639 -35 205 43 369
226 471 68 38 227 107 232 101 2 -2 -10 -33 -27 -69z m1269 -322 c0 -5 -15
-39 -34 -75 l-34 -65 -1 78 c0 75 -1 77 -25 77 -25 0 -25 -1 -25 -92 l0 -92
-45 88 -45 89 52 99 52 99 53 -98 c29 -54 52 -102 52 -108z m-434 107 c-3 -3
-11 0 -18 7 -9 10 -8 11 6 5 10 -3 15 -9 12 -12z m690 8 c-3 -5 -12 -10 -18
-10 -7 0 -6 4 3 10 19 12 23 12 15 0z m-755 -39 c0 -3 3 -17 6 -31 5 -25 5
-25 -11 -5 -9 11 -21 27 -26 37 -7 13 -5 15 11 11 11 -3 20 -8 20 -12z m821
-8 c-5 -10 -16 -27 -25 -38 -15 -19 -15 -19 -9 5 7 29 21 50 35 50 5 0 5 -7
-1 -17z m-615 -73 c42 -18 78 -65 104 -135 10 -26 4 -23 -49 30 -58 56 -62 58
-78 42 -16 -16 -15 -19 18 -54 101 -110 101 -106 -4 -52 l-94 48 -22 83 c-11
46 -21 86 -21 90 0 7 62 -14 146 -52z m534 46 c0 -1 -4 -16 -9 -32 -5 -16 -17
-54 -25 -85 -15 -52 -19 -58 -58 -74 -24 -9 -65 -30 -92 -47 -57 -34 -54 -27
28 67 47 53 48 57 32 73 -16 16 -21 13 -82 -53 l-65 -70 35 72 c20 39 41 75
48 80 40 25 188 80 188 69z m-875 -196 c8 -13 -65 -13 -85 0 -11 7 -2 10 32
10 26 0 50 -4 53 -10z m280 -50 l60 -30 -57 6 c-54 6 -58 5 -58 -15 0 -23 4
-26 65 -37 22 -4 33 -8 25 -10 -8 -1 -47 -8 -86 -14 l-71 -13 -79 53 c-43 30
-74 55 -69 57 13 4 176 31 195 32 8 0 42 -12 75 -29z m713 8 c45 -7 82 -14 82
-18 0 -3 -34 -27 -76 -54 l-75 -49 -50 11 c-28 7 -64 12 -81 12 -41 0 -29 11
19 19 29 5 39 11 41 29 4 25 -11 27 -88 12 -25 -4 -47 -6 -49 -4 -2 2 25 17
60 34 46 21 74 28 99 25 19 -3 72 -10 118 -17z m-668 -142 c0 -3 -22 -12 -49
-21 -40 -13 -48 -19 -44 -35 6 -22 20 -25 57 -10 17 6 -1 -17 -55 -70 -63 -63
-90 -82 -122 -90 -23 -5 -43 -7 -45 -6 -4 5 96 178 113 195 8 8 40 20 72 27
69 15 73 15 73 10z m222 -22 c31 -22 38 -33 38 -61 0 -37 -1 -37 -57 5 -24 18
-33 32 -33 53 0 36 4 36 52 3z m320 5 c33 -8 42 -19 93 -110 31 -56 55 -103
53 -105 -2 -1 -23 1 -47 7 -29 6 -51 20 -69 42 -35 42 -60 66 -102 101 -19 15
-27 25 -17 22 55 -18 64 -18 70 4 4 16 -1 23 -21 31 -58 20 -69 28 -32 22 19
-3 52 -9 72 -14z m-53 -154 l57 -60 -9 -105 c-6 -58 -12 -107 -14 -109 -2 -3
-28 20 -59 50 -46 46 -58 64 -75 124 -11 38 -27 88 -35 110 l-16 40 41 -40
c39 -37 42 -38 58 -22 16 16 15 20 -27 63 -43 45 -44 46 -12 28 19 -10 59 -46
91 -79z m-487 42 c-32 -33 -32 -34 -13 -51 19 -17 21 -16 67 26 44 40 46 41
32 13 -9 -16 -28 -68 -43 -115 -22 -71 -35 -95 -80 -143 l-53 -58 -5 33 c-3
18 -9 71 -13 117 l-7 83 68 64 c72 68 101 87 47 31z m-3832 -18 c0 -6 14 -56
31 -110 l31 -98 122 -3 121 -3 -97 -74 c-54 -40 -98 -74 -98 -75 0 0 16 -50
35 -110 19 -60 33 -111 30 -114 -2 -2 -44 25 -93 62 -49 36 -93 66 -97 66 -4
0 -45 -30 -92 -66 -46 -36 -87 -63 -90 -60 -4 3 8 53 26 110 18 58 30 109 27
114 -3 6 -44 39 -91 73 -47 35 -85 67 -85 71 0 4 53 9 117 10 l117 3 34 108
c18 59 37 107 42 107 6 0 10 -5 10 -11z m4069 -39 c21 -19 31 -36 27 -46 -3
-9 -6 -20 -6 -25 0 -16 -89 52 -93 70 -1 9 -1 24 1 33 5 21 24 13 71 -32z
m544 -70 c-6 -6 -53 51 -53 65 0 6 14 -6 29 -25 16 -19 27 -37 24 -40z m-1094
38 c-13 -24 -28 -38 -43 -38 -6 0 3 14 19 30 34 36 40 38 24 8z m423 -110 l-4
-113 -20 40 c-19 36 -20 44 -8 90 14 53 28 95 32 95 2 0 2 -51 0 -112z m234
32 c16 -64 16 -66 -4 -110 l-20 -45 -1 65 c-1 36 -4 90 -7 120 -9 73 9 57 32
-30z m-118 -25 c34 -24 42 -36 42 -62 0 -18 -2 -33 -5 -33 -3 0 -28 17 -55 37
-43 32 -50 42 -50 71 0 37 -1 37 68 -13z m-9 -141 c34 -25 51 -46 55 -67 3
-17 4 -32 1 -35 -5 -5 -69 37 -102 67 -14 13 -19 28 -16 45 3 14 7 26 9 26 3
0 26 -16 53 -36z m9 -156 c45 -34 52 -43 52 -74 l0 -34 -65 47 c-56 42 -64 52
-65 81 0 37 -2 38 78 -20z m-10 -140 c31 -23 58 -42 59 -43 8 -2 5 -60 -3 -60
-7 0 -39 21 -72 47 -51 39 -59 50 -55 72 3 14 7 26 10 26 2 0 30 -19 61 -42z
m2 -149 c64 -47 70 -55 70 -86 0 -27 -3 -33 -12 -26 -7 5 -41 31 -75 57 -52
39 -63 52 -63 77 0 16 2 29 5 29 2 0 36 -23 75 -51z m72 -234 c2 -19 2 -35 0
-35 -2 0 -38 27 -81 59 -71 55 -77 62 -73 90 l4 30 73 -55 c62 -47 74 -60 77
-89z m-71 -62 c70 -52 78 -61 79 -91 0 -38 4 -40 -97 36 -61 46 -73 59 -73 83
0 16 3 29 6 29 4 0 42 -26 85 -57z m-3376 -273 l119 -5 -92 -69 c-51 -37 -92
-73 -92 -78 0 -6 14 -55 31 -110 16 -55 29 -103 27 -108 -2 -5 -44 22 -94 60
l-92 69 -93 -69 c-51 -39 -94 -68 -96 -66 -3 2 12 55 31 117 20 62 32 116 27
119 -4 3 -47 34 -95 70 l-87 65 119 3 119 3 28 92 c48 159 43 158 85 27 l36
-115 119 -5z m3375 123 c0 -2 -20 -3 -45 -3 -45 0 -45 0 -45 36 l0 35 45 -32
c25 -18 45 -34 45 -36z m-2264 -863 l119 -5 -92 -70 c-51 -38 -93 -74 -93 -79
0 -5 14 -53 31 -108 16 -55 29 -104 27 -109 -2 -5 -44 22 -94 60 l-90 69 -93
-70 c-51 -38 -95 -68 -97 -65 -3 3 11 53 30 113 19 59 33 111 30 115 -2 4 -42
36 -89 70 -47 35 -85 67 -85 71 0 4 51 8 113 8 l114 0 33 108 c18 59 36 112
39 117 3 6 22 -42 42 -105 l36 -115 119 -5z m2654 115 l35 -114 120 -3 120 -3
-96 -73 -96 -73 33 -106 c19 -59 33 -111 31 -116 -1 -4 -42 21 -89 57 -48 36
-92 66 -98 66 -6 0 -50 -30 -98 -66 -47 -36 -88 -61 -89 -57 -2 5 12 57 31
116 l33 106 -96 73 -96 73 120 3 121 3 34 114 c19 63 37 115 40 115 3 0 21
-52 40 -115z m-1395 -570 l35 -114 117 -3 117 -3 -92 -69 c-106 -79 -102 -62
-52 -212 16 -46 24 -84 19 -84 -6 0 -45 26 -87 58 -42 32 -83 62 -89 66 -8 4
-47 -19 -99 -59 -74 -55 -105 -74 -104 -62 0 1 16 51 35 111 19 61 32 113 28
116 -5 4 -46 36 -93 71 l-85 64 116 3 116 3 28 92 c32 107 43 137 49 137 3 0
21 -52 41 -115z"/>
<path d="M15611 16407 c-8 -10 -7 -19 4 -33 13 -18 15 -18 31 -2 18 18 13 48
-9 48 -8 0 -20 -6 -26 -13z"/>
<path d="M13930 15525 l0 -75 80 0 80 0 0 75 0 75 -80 0 -80 0 0 -75z"/>
<path d="M13945 14585 c-159 -90 -251 -160 -321 -244 -204 -245 -227 -572 -68
-944 20 -45 38 -88 41 -94 4 -9 -6 -13 -31 -13 -29 0 -36 4 -36 20 0 17 -7 20
-50 20 -43 0 -50 -3 -50 -20 0 -18 -7 -20 -59 -20 -67 0 -87 -15 -77 -55 8
-33 28 -40 161 -56 235 -30 842 -6 867 34 12 18 10 51 -4 65 -7 7 -39 12 -75
12 l-63 0 0 49 c0 54 -8 61 -65 61 -57 0 -65 -7 -65 -61 l0 -49 -142 0 -143 1
60 34 c122 71 310 135 559 191 82 18 150 35 152 37 2 2 -33 32 -78 67 -217
167 -386 330 -458 442 -43 66 -80 169 -80 222 0 70 28 140 129 319 18 31 31
57 29 56 -1 0 -61 -34 -133 -74z m-45 -129 c-103 -241 2 -456 370 -762 71 -59
129 -109 127 -110 -1 -1 -67 -19 -147 -39 -218 -56 -396 -127 -546 -219 l-41
-25 -36 83 c-207 476 -130 843 224 1075 35 22 65 41 66 41 1 0 -6 -20 -17 -44z"/>
<path d="M24768 9137 l-817 -502 0 -55 c-1 -52 6 -67 133 -295 l134 -240 58
-2 c56 -3 113 17 974 341 l915 344 3 50 c3 49 -1 55 -242 453 l-244 404 -49 2
c-47 2 -62 -6 -865 -500z"/>
<path d="M4653 7735 c-1090 -138 -1911 -825 -2146 -1796 -52 -211 -62 -306
-62 -569 0 -262 10 -358 62 -569 141 -583 508 -1087 1030 -1418 110 -69 337
-180 467 -228 737 -272 1594 -216 2251 148 208 115 368 238 553 423 l132 133
0 54 0 54 -426 362 c-424 360 -425 361 -471 361 -42 0 -51 -5 -110 -60 -424
-397 -1009 -499 -1478 -257 -275 142 -467 387 -553 706 -23 87 -26 114 -26
286 -1 165 2 202 22 278 105 416 394 708 809 818 112 30 373 37 503 15 260
-45 515 -174 715 -361 69 -65 70 -66 122 -63 l52 3 420 358 421 358 0 49 c0
49 -3 53 -80 140 -153 170 -401 363 -621 483 -243 133 -518 226 -820 278 -162
28 -593 36 -766 14z"/>
<path d="M7660 5410 l0 -2340 1765 0 1765 0 0 575 0 575 -1062 2 -1063 3 -3
323 -2 322 800 0 800 0 0 540 0 540 -800 0 -800 0 0 325 0 325 1065 0 1065 0
0 575 0 575 -1765 0 -1765 0 0 -2340z"/>
<path d="M13667 7742 c-5 -7 -1932 -4607 -1948 -4650 l-9 -22 736 2 736 3 131
353 130 352 872 0 872 0 62 -102 c122 -203 278 -389 405 -485 210 -157 524
-233 846 -203 140 13 234 30 330 62 110 35 211 81 206 92 -24 58 -648 1431
-662 1457 -10 19 -332 734 -715 1589 l-698 1555 -645 3 c-354 1 -647 -1 -649
-6z m897 -2350 c130 -369 236 -674 236 -677 0 -3 -226 -5 -501 -5 -473 0 -501
1 -496 18 7 26 498 1346 504 1356 3 5 9 2 13 -5 5 -8 114 -317 244 -687z"/>
<path d="M17590 5410 l0 -2340 700 0 700 0 0 820 0 820 88 0 c80 0 95 -3 153
-32 120 -60 268 -234 421 -498 31 -52 102 -180 158 -285 265 -492 469 -712
763 -823 119 -45 239 -69 407 -83 144 -11 237 -7 390 18 162 26 372 105 459
172 l24 19 -517 833 c-285 459 -524 844 -533 856 -14 21 -13 23 57 58 337 170
589 451 698 780 59 177 67 238 66 485 0 251 -13 339 -79 537 -160 479 -545
801 -1120 936 -270 64 -200 61 -1577 64 l-1258 4 0 -2341z m2242 1179 c170
-37 297 -152 348 -317 24 -76 27 -221 6 -297 -37 -140 -133 -242 -281 -297
-58 -22 -73 -22 -487 -26 l-428 -3 0 475 0 476 395 0 c255 0 413 -4 447 -11z"/>
<path d="M24202 7703 c-95 -224 -1926 -4602 -1929 -4615 -5 -17 34 -18 728
-18 l734 0 130 353 130 352 873 3 872 2 28 -46 c122 -207 278 -406 390 -500
200 -169 444 -247 767 -247 172 0 296 17 443 59 70 21 207 75 220 89 4 3 -591
1325 -657 1459 -16 32 -341 755 -722 1607 l-694 1548 -646 1 -647 0 -20 -47z
m912 -2300 c130 -369 236 -676 236 -682 0 -8 -150 -11 -501 -11 -473 0 -501 1
-494 18 4 9 116 312 250 672 134 360 247 663 251 673 3 10 10 15 15 10 4 -4
114 -310 243 -680z"/>
<path d="M3036 2154 c-259 -58 -450 -214 -543 -444 -65 -162 -71 -361 -14
-529 41 -123 89 -199 176 -286 82 -81 156 -127 264 -166 278 -98 588 -40 792
149 157 145 230 316 231 536 0 85 -3 102 -18 113 -14 10 -95 13 -366 13 l-348
0 0 -130 0 -130 190 0 c152 0 190 -3 190 -13 0 -30 -63 -137 -100 -171 -90
-81 -221 -119 -345 -98 -200 33 -340 186 -352 385 -12 189 68 347 215 425 162
86 356 59 497 -70 30 -27 61 -48 70 -46 8 2 60 41 115 87 70 58 100 90 100
105 0 22 -51 77 -126 134 -58 44 -169 98 -255 122 -99 29 -278 36 -373 14z"/>
<path d="M4827 2160 c-394 -71 -647 -359 -647 -735 0 -346 219 -624 565 -717
114 -30 326 -30 439 1 285 77 482 274 547 548 17 72 20 108 16 198 -6 127 -24
201 -73 301 -122 248 -374 400 -679 409 -66 2 -142 0 -168 -5z m295 -330 c118
-44 208 -134 254 -255 14 -38 19 -76 19 -155 0 -98 -2 -110 -34 -177 -126
-271 -482 -336 -700 -128 -171 163 -175 446 -9 615 52 53 146 105 218 120 66
13 189 4 252 -20z"/>
<path d="M12780 2151 c-297 -66 -495 -243 -581 -521 -30 -97 -33 -289 -6 -390
55 -207 201 -383 393 -476 124 -60 209 -77 374 -77 129 0 155 3 235 27 271 83
459 269 526 523 24 92 29 248 10 338 -50 238 -220 441 -442 529 -107 43 -179
57 -304 62 -93 3 -139 0 -205 -15z m272 -302 c134 -28 236 -107 295 -227 38
-75 38 -77 38 -196 0 -115 -2 -124 -32 -188 -127 -268 -493 -330 -704 -119
-165 165 -169 436 -8 606 103 109 259 156 411 124z"/>
<path d="M16905 2156 c-320 -63 -553 -282 -616 -581 -19 -90 -14 -246 10 -338
50 -190 190 -368 356 -454 337 -174 745 -119 992 135 216 223 264 571 117 852
-95 183 -256 308 -475 370 -96 27 -285 35 -384 16z m245 -306 c245 -46 398
-292 335 -535 -22 -83 -60 -147 -122 -206 -231 -218 -623 -117 -715 184 -17
56 -20 86 -16 163 4 80 10 104 38 161 88 178 280 271 480 233z"/>
<path d="M20518 2160 c-176 -30 -314 -123 -375 -255 -25 -53 -28 -71 -28 -160
0 -88 3 -107 27 -158 61 -129 198 -219 456 -296 165 -49 218 -75 243 -115 79
-129 -97 -240 -305 -192 -86 20 -192 76 -257 133 -27 25 -55 43 -63 41 -21 -5
-176 -187 -176 -207 0 -22 82 -101 150 -143 66 -42 164 -82 256 -105 97 -24
315 -24 404 1 154 42 270 128 325 240 41 84 47 214 15 310 -47 141 -159 222
-430 311 -240 79 -300 118 -300 196 0 119 191 169 360 93 36 -16 91 -50 123
-76 32 -26 64 -44 70 -42 14 6 169 185 174 200 6 19 -37 62 -110 111 -147 99
-373 144 -559 113z"/>
<path d="M26667 2160 c-303 -55 -514 -227 -610 -497 -30 -84 -32 -95 -32 -238
1 -138 3 -156 29 -230 86 -248 269 -415 531 -486 114 -31 326 -31 440 -1 285
77 493 288 551 561 20 97 18 242 -6 337 -84 331 -368 548 -735 559 -66 2 -142
0 -168 -5z m235 -311 c106 -23 197 -82 259 -168 136 -189 91 -477 -93 -604
-261 -180 -605 -60 -683 238 -82 316 195 602 517 534z"/>
<path d="M5875 2130 c-3 -5 139 -327 317 -715 l323 -705 105 2 105 3 321 700
c177 385 319 705 317 712 -4 10 -48 13 -178 13 l-173 0 -194 -455 c-106 -250
-195 -455 -198 -455 -3 0 -89 204 -191 453 l-187 452 -180 3 c-113 1 -183 -1
-187 -8z"/>
<path d="M7630 1425 l0 -715 525 0 525 0 0 140 0 140 -350 0 -350 0 0 150 0
150 270 0 270 0 0 135 0 135 -270 0 -270 0 0 150 0 150 350 0 350 0 0 140 0
140 -525 0 -525 0 0 -715z"/>
<path d="M9030 1425 l0 -715 170 0 170 0 2 268 3 267 100 0 100 0 144 -267
143 -268 174 0 c137 0 176 3 180 13 4 12 -98 207 -262 504 l-35 62 59 30 c82
41 147 108 185 189 26 56 32 82 35 158 11 243 -116 402 -365 458 -59 13 -138
16 -437 16 l-366 0 0 -715z m739 402 c113 -75 107 -252 -9 -317 -43 -24 -52
-25 -215 -25 l-170 0 -3 188 -2 188 178 -3 c177 -3 179 -3 221 -31z"/>
<path d="M10550 1425 l0 -715 175 0 175 0 2 417 3 418 360 -423 360 -422 108
0 107 0 0 720 0 720 -175 0 -175 0 -2 -420 -3 -421 -355 418 -355 418 -113 3
-112 3 0 -716z"/>
<path d="M14640 1426 l0 -716 369 0 c396 0 452 5 583 53 201 73 352 240 410
454 29 110 29 306 -1 416 -65 243 -221 400 -476 479 -66 20 -94 22 -477 26
l-408 3 0 -715z m745 419 c178 -46 289 -207 289 -420 0 -196 -75 -324 -234
-399 -65 -31 -66 -31 -257 -34 l-193 -4 0 436 0 436 168 0 c118 0 186 -5 227
-15z"/>
<path d="M18750 1425 l0 -715 525 0 525 0 0 140 0 140 -355 0 -355 0 0 150 0
150 273 2 272 3 3 132 3 133 -273 2 -273 3 -3 148 -3 147 356 0 355 0 0 140 0
140 -525 0 -525 0 0 -715z"/>
<path d="M21390 2000 l0 -140 225 0 225 0 0 -575 0 -575 175 0 175 0 0 575 0
575 225 0 225 0 0 140 0 140 -625 0 -625 0 0 -140z"/>
<path d="M22930 1449 c-179 -380 -326 -702 -328 -715 l-3 -24 173 0 174 0 51
122 52 123 306 0 306 0 51 -122 50 -123 178 0 c133 0 179 3 182 13 3 6 -143
327 -323 712 l-329 700 -107 3 -108 3 -325 -692z m433 -247 c-108 -1 -198 0
-201 2 -4 4 99 255 174 425 l25 56 99 -240 99 -240 -196 -3z"/>
<path d="M24390 1425 l0 -716 403 4 c447 4 449 4 602 76 250 118 387 367 372
675 -7 134 -24 204 -79 315 -76 157 -223 273 -418 332 -71 22 -94 23 -477 27
l-403 3 0 -716z m783 406 c329 -130 328 -683 -1 -812 -51 -20 -79 -23 -249
-27 l-193 -4 0 437 0 437 193 -4 c171 -4 198 -7 250 -27z"/>
</g>
</svg>
